<svg width="124" height="34" viewBox="0 0 124 34" fill="none" xmlns="http://www.w3.org/2000/svg">
<g clip-path="url(#clip0_2567_7018)">
<path d="M55.4189 14.9607L70.9331 0H55.7034L47.8135 7.60839L55.4189 14.9607Z" fill="url(#paint0_linear_2567_7018)"/>
<path d="M55.4189 19.0398L70.9331 34.0005H55.7034L47.8135 26.3921L55.4189 19.0398Z" fill="url(#paint1_linear_2567_7018)"/>
<path d="M38.1601 18.0514L21.6406 33.9998H36.8704L53.4088 18.0514H38.1601Z" fill="url(#paint2_linear_2567_7018)"/>
<path d="M53.4088 15.9484L36.8704 0H21.6406L38.1601 15.9484H53.4088Z" fill="url(#paint3_linear_2567_7018)"/>
<path d="M79.7329 19.5517C78.576 22.7341 75.9018 24.9288 71.9948 24.9288C66.1153 24.9288 63.3652 20.5577 63.3652 16.79C63.3652 13.2785 66.0205 8.87073 71.862 8.87073C75.807 8.87073 78.6898 11.102 79.7329 14.3575H75.5035C74.7638 12.9676 73.4552 12.2908 71.8051 12.2908C68.8085 12.2908 67.1205 14.4124 67.1205 16.8266C67.1205 19.4054 68.9223 21.4721 71.8051 21.4721C72.45 21.4721 74.4604 21.3624 75.5035 19.5152H79.7329V19.5517Z" fill="#005BAA"/>
<path d="M97.9408 16.9358C97.9408 21.3253 94.4132 24.9283 89.6527 24.9283C84.8922 24.9283 81.3645 21.307 81.3645 16.9358C81.3645 12.5281 84.8543 8.8885 89.6527 8.8885C94.4511 8.87021 97.9408 12.5281 97.9408 16.9358ZM85.1008 16.9358C85.1008 19.3866 86.8836 21.5082 89.6527 21.5082C92.4217 21.5082 94.1856 19.3866 94.1856 16.9358C94.1856 14.4851 92.4407 12.3086 89.6527 12.3086C86.8457 12.3086 85.1008 14.4851 85.1008 16.9358Z" fill="#005BAA"/>
<path d="M100.501 9.08984H103.953V10.9737H104.01C105.11 9.47392 106.893 9.08984 108.068 9.08984C109.643 9.08984 111.558 9.74826 112.639 11.4309C113.55 10.2421 115.086 9.08984 117.627 9.08984C121.439 9.08984 124 11.5955 124 15.8386V24.6541H120.245V16.6617C120.245 15.3082 120.074 12.5283 117.172 12.5283C114.289 12.5283 114.119 15.3082 114.119 16.6617V24.6724H110.382V16.6617C110.382 15.3082 110.212 12.5283 107.31 12.5283C104.427 12.5283 104.256 15.3082 104.256 16.6617V24.6724H100.501V9.08984Z" fill="#005BAA"/>
<path d="M20.5407 3.03575H15.875C15.4767 3.03575 15.1543 2.72483 15.1543 2.34075C15.1543 1.95667 15.4767 1.64575 15.875 1.64575H20.5407C20.9389 1.64575 21.2614 1.95667 21.2614 2.34075C21.2614 2.72483 20.9389 3.03575 20.5407 3.03575Z" fill="#005BAA"/>
<path d="M24.3525 6.7125H12.0625C11.6642 6.7125 11.3418 6.40158 11.3418 6.01751C11.3418 5.63343 11.6642 5.32251 12.0625 5.32251H24.3525C24.7508 5.32251 25.0732 5.63343 25.0732 6.01751C25.0732 6.40158 24.7508 6.7125 24.3525 6.7125Z" fill="#005BAA"/>
<path d="M31.9766 14.0459H4.41895C4.02066 14.0459 3.69824 13.735 3.69824 13.3509C3.69824 12.9668 4.02066 12.6559 4.41895 12.6559H31.9766C32.3749 12.6559 32.6973 12.9668 32.6973 13.3509C32.6973 13.735 32.3749 14.0459 31.9766 14.0459Z" fill="#005BAA"/>
<path d="M28.2409 10.388H8.17481C7.77652 10.388 7.4541 10.0771 7.4541 9.69304C7.4541 9.30897 7.77652 8.99805 8.17481 8.99805H28.2219C28.6202 8.99805 28.9426 9.30897 28.9426 9.69304C28.9426 10.0771 28.6202 10.388 28.2409 10.388Z" fill="#005BAA"/>
<path d="M35.6941 17.7226H0.72071C0.322423 17.7226 0 17.4117 0 17.0276C0 16.6436 0.322423 16.3326 0.72071 16.3326H35.6941C36.0924 16.3326 36.4148 16.6436 36.4148 17.0276C36.4148 17.4117 36.0924 17.7226 35.6941 17.7226Z" fill="#005BAA"/>
<path d="M20.5407 32.3905H15.875C15.4767 32.3905 15.1543 32.0796 15.1543 31.6955C15.1543 31.3114 15.4767 31.0005 15.875 31.0005H20.5407C20.9389 31.0005 21.2614 31.3114 21.2614 31.6955C21.2614 32.0796 20.9389 32.3905 20.5407 32.3905Z" fill="#005BAA"/>
<path d="M24.3525 28.714H12.0625C11.6642 28.714 11.3418 28.4031 11.3418 28.019C11.3418 27.6349 11.6642 27.324 12.0625 27.324H24.3525C24.7508 27.324 25.0732 27.6349 25.0732 28.019C25.0732 28.4031 24.7508 28.714 24.3525 28.714Z" fill="#005BAA"/>
<path d="M31.9766 21.3805H4.41895C4.02066 21.3805 3.69824 21.0696 3.69824 20.6855C3.69824 20.3014 4.02066 19.9905 4.41895 19.9905H31.9766C32.3749 19.9905 32.6973 20.3014 32.6973 20.6855C32.6973 21.0696 32.3749 21.3805 31.9766 21.3805Z" fill="#005BAA"/>
<path d="M28.2409 25.0561H8.17481C7.77652 25.0561 7.4541 24.7452 7.4541 24.3611C7.4541 23.9771 7.77652 23.6661 8.17481 23.6661H28.2219C28.6202 23.6661 28.9426 23.9771 28.9426 24.3611C28.9426 24.7452 28.6202 25.0561 28.2409 25.0561Z" fill="#005BAA"/>
</g>
<defs>
<linearGradient id="paint0_linear_2567_7018" x1="47.807" y1="7.47634" x2="70.9382" y2="7.47634" gradientUnits="userSpaceOnUse">
<stop stop-color="#1B4790"/>
<stop offset="1" stop-color="#1A7BBF"/>
</linearGradient>
<linearGradient id="paint1_linear_2567_7018" x1="47.807" y1="26.5242" x2="70.9382" y2="26.5242" gradientUnits="userSpaceOnUse">
<stop stop-color="#1B4790"/>
<stop offset="1" stop-color="#1A7BBF"/>
</linearGradient>
<linearGradient id="paint2_linear_2567_7018" x1="21.6383" y1="26.0296" x2="53.4023" y2="26.0296" gradientUnits="userSpaceOnUse">
<stop stop-color="#F59324"/>
<stop offset="1" stop-color="#F05C2A"/>
</linearGradient>
<linearGradient id="paint3_linear_2567_7018" x1="21.6383" y1="7.9707" x2="53.4038" y2="7.9707" gradientUnits="userSpaceOnUse">
<stop stop-color="#F59324"/>
<stop offset="1" stop-color="#F05C2A"/>
</linearGradient>
<clipPath id="clip0_2567_7018">
<rect width="124" height="34" fill="white"/>
</clipPath>
</defs>
</svg>
